:SAMPLES-PER-SECOND 30
:FULLY-SPECIFIED
:DEGREES
1
root  14.2437 39.4492 -6.87694 -1.27705 -84.324 -3.59788
RightUpLeg  -0.69351 -8.05128 -1.25146
RightLeg  12.1295 9.68104 1.98686
RightFoot  -7.65933 -0.0347471 -0.538042
RightToes  -5.8209e-011 0 -3.6325e-017
Spine  8.89241 -3.23161 7.63574
Spine1  6.67774 -2.57965 0.631665
HEad  -23.2483 -8.70689 -3.5286
LeftShoulder1  -0.262524 4.21419 -30.7939
LeftArm  2.79798 -5.67991 -48.5796
LeftForeArm  21.2822 -14.7351 -7.23544
LeftHand  0.0514904 7.18282 5.45369
RightShoulder  -0.512362 -5.00836 27.2269
RightArm  13.3314 0.347713 42.4815
RightForeArm  12.5857 5.53816 7.14306
RightHand  -0.397079 3.26135 -5.55878
LeftUpLeg  -6.49554 6.0322 3.65488
LeftLeg  30.8833 4.4599 3.21825
LeftFoot  -10.4873 0.105822 -5.72266
LeftToes  8.00323e-011 7.86695e-011 -1.03868e-010
2
root  14.92 39.4179 -7.02144 4.20024 -84.4319 -8.79881
RightUpLeg  -1.8649 -7.77597 -0.511272
RightLeg  11.4233 9.26353 2.19478
RightFoot  -6.57169 -0.019232 -0.590182
RightToes  -5.8209e-011 0 -3.6325e-017
Spine  8.81539 -3.46679 7.20957
Spine1  6.56113 -2.98299 1.20864
HEad  -23.2761 -7.42177 -3.38699
LeftShoulder1  -0.304574 4.32249 -31.0511
LeftArm  4.74681 -6.82064 -49.7138
LeftForeArm  19.3475 -16.209 -6.70029
LeftHand  0.0336159 6.54833 6.00019
RightShoulder  -0.480337 -4.92085 27.0389
RightArm  12.7498 -0.0356311 41.9664
RightForeArm  11.7849 5.08497 6.93514
RightHand  -0.454506 3.64665 -6.0979
LeftUpLeg  -4.26995 6.82421 3.81448
LeftLeg  32.3716 4.49434 3.40614
LeftFoot  -11.0483 0.079921 -5.45855
LeftToes  8.00323e-011 7.86695e-011 -1.03868e-010
3
root  15.7948 39.3843 -7.21326 8.54005 -84.566 -12.6923
RightUpLeg  -3.55942 -7.1087 0.353442
RightLeg  10.6228 8.44395 2.08403
RightFoot  -5.03054 0.000767088 -0.659107
RightToes  -5.8209e-011 0 -3.6325e-017
Spine  8.68776 -3.60498 6.02496
Spine1  6.48905 -3.40829 1.94086
HEad  -23.211 -6.70748 -2.5248
LeftShoulder1  -0.229934 4.13544 -30.2884
LeftArm  4.98927 -8.02685 -52.0862
LeftForeArm  18.9075 -17.0335 -6.20788
LeftHand  -0.0128896 5.66099 5.33518
RightShoulder  -0.504685 -4.98573 27.2268
RightArm  11.0282 -0.459891 41.4359
RightForeArm  11.1235 4.95197 6.22775
RightHand  -0.454615 3.28687 -6.32926
LeftUpLeg  -1.23035 8.63934 3.96896
LeftLeg  32.8557 3.74326 2.94588
LeftFoot  -11.4056 0.0650634 -5.51459
LeftToes  8.00323e-011 7.86695e-011 -1.03868e-010
4
root  16.6894 39.36 -7.38623 12.9408 -84.2367 -16.6106
RightUpLeg  -5.68671 -6.63214 0.976377
RightLeg  10.721 8.10077 2.36562
RightFoot  -3.25095 -0.013051 -0.117179
RightToes  -5.8209e-011 0 -3.6325e-017
Spine  8.85963 -3.78519 4.62195
Spine1  6.14149 -4.03679 3.4558
HEad  -23.5065 -6.03164 -2.19878
LeftShoulder1  -0.178595 3.994 -30.3053
LeftArm  4.76954 -9.61396 -53.958
LeftForeArm  17.8541 -17.1314 -6.11419
LeftHand  0.0229043 6.4082 5.76343
RightShoulder  -0.49411 -4.96522 26.9676
RightArm  8.96857 -1.04799 41.3736
RightForeArm  9.85042 5.2782 5.40443
RightHand  -0.436508 3.97164 -5.67259
LeftUpLeg  1.82899 9.66937 4.09599
LeftLeg  31.4573 2.6498 2.10382
LeftFoot  -11.0522 0.0813303 -5.62759
LeftToes  8.00323e-011 7.86695e-011 -1.03868e-010
5
root  17.6011 39.2986 -7.5719 15.1073 -83.8476 -17.9983
RightUpLeg  -7.81644 -6.11593 1.5083
RightLeg  10.0912 7.1135 2.37255
RightFoot  -1.53944 -0.00172884 -0.0991212
RightToes  -5.8209e-011 0 -3.6325e-017
Spine  9.00288 -3.90909 3.14046
Spine1  5.50561 -4.53473 4.49038
HEad  -24.1081 -5.68874 -1.38496
LeftShoulder1  -0.140518 3.89195 -30.0377
LeftArm  3.73525 -11.4439 -55.9487
LeftForeArm  18.537 -16.2416 -6.39899
LeftHand  0.0460262 6.90172 5.76702
RightShoulder  -0.471662 -4.90919 26.6978
RightArm  7.54584 -2.13359 41.7125
RightForeArm  8.20741 6.61856 4.87701
RightHand  -0.466152 3.88104 -6.09245
LeftUpLeg  4.75151 10.4836 4.09079
LeftLeg  27.9001 -0.187048 0.249337
LeftFoot  -10.7544 0.0965599 -6.81702
LeftToes  8.00323e-011 7.86695e-011 -1.03868e-010
6
root  18.5417 39.2516 -7.72852 13.7132 -82.5679 -15.9861
RightUpLeg  -9.38638 -6.08922 1.4799
RightLeg  8.8562 5.80622 2.62565
RightFoot  0.327936 -0.00675456 0.0803816
RightToes  -5.8209e-011 0 -3.6325e-017
Spine  9.00548 -4.21729 1.96694
Spine1  5.40009 -5.09517 4.75462
HEad  -25.0204 -6.00975 -0.472398
LeftShoulder1  -0.0757171 3.71518 -29.7324
LeftArm  2.65572 -13.9518 -57.9643
LeftForeArm  20.6244 -14.8523 -6.84496
LeftHand  -0.00736732 5.79889 5.37644
RightShoulder  -0.467626 -4.89238 26.8012
RightArm  6.95118 -2.64263 42.0269
RightForeArm  6.69189 7.81285 4.71302
RightHand  -0.508225 4.07705 -6.49715
LeftUpLeg  7.72675 9.38233 3.55599
LeftLeg  22.3667 -2.76148 -0.930016
LeftFoot  -11.821 0.0483363 -6.94369
LeftToes  8.00323e-011 7.86695e-011 -1.03868e-010
7
root  19.5082 39.254 -7.91832 11.6009 -81.0241 -13.5667
RightUpLeg  -10.0228 -5.70285 1.41159
RightLeg  6.34845 3.93993 2.34374
RightFoot  2.72214 -0.0492211 0.553296
RightToes  -5.8209e-011 0 -3.6325e-017
Spine  9.64178 -4.31864 0.400809
Spine1  5.07322 -5.52604 5.14217
HEad  -26.3881 -6.64204 0.626819
LeftShoulder1  -0.0641497 3.68218 -29.7626
LeftArm  1.80163 -16.9239 -59.9806
LeftForeArm  22.7758 -12.9483 -7.47735
LeftHand  0.0147992 6.40249 4.97186
RightShoulder  -0.451871 -4.85241 26.6045
RightArm  6.70604 -3.08142 42.9817
RightForeArm  7.33011 8.95215 4.62692
RightHand  -0.478235 4.1046 -6.11293
LeftUpLeg  10.2509 7.74279 2.96093
LeftLeg  15.669 -3.3173 -0.747665
LeftFoot  -13.5409 0.0139866 -3.44542
LeftToes  8.00323e-011 7.86695e-011 -1.03868e-010
